Coordinates
version=1
nRows=29
nColumns=24
inDegrees=yes

Units are S.I. units (second, meters, Newtons, ...)
Angles are in degrees.

endheader
time	pelvis_tilt	pelvis_list	pelvis_rotation	pelvis_tx	pelvis_ty	pelvis_tz	hip_flexion_r	hip_adduction_r	hip_rotation_r	knee_angle_r	ankle_angle_r	subtalar_angle_r	mtp_angle_r	hip_flexion_l	hip_adduction_l	hip_rotation_l	knee_angle_l	ankle_angle_l	subtalar_angle_l	mtp_angle_l	lumbar_extension	lumbar_bending	lumbar_rotation
      2.86000000	    -11.42243593	     -2.10583388	      8.28803741	     -1.79333696	     -0.04232172	      0.42536785	     36.09982174	     -1.52505215	     -8.37488428	     -7.97429303	     -3.90151882	     11.57260307	     19.04677165	     -5.32092304	      2.45445426	     15.77576361	    -14.36827942	      9.01848928	      1.83779348	      5.13027898	      7.51822481	      0.05616950	     -5.65583741
      2.86500000	    -11.55277741	     -2.38302632	      8.34409822	     -1.78527385	     -0.04337112	      0.42558531	     36.30788402	     -1.20048029	     -8.10622011	     -8.72022391	     -4.41827311	     10.71402458	     19.01063882	     -5.15595042	      2.13345311	     15.56003769	    -15.29239013	      8.92308594	      2.50904025	      5.46079600	      7.76429549	      0.36255518	     -5.73307899
      2.87000000	    -11.67925835	     -2.68045683	      8.38373054	     -1.77713274	     -0.04435752	      0.42580382	     36.51811249	     -0.84765333	     -7.81195968	     -9.52360433	     -5.11891880	      9.75294913	     18.89424793	     -4.97498504	      1.78386224	     15.34373714	    -16.24292500	      8.75262714	      3.22272643	      5.86896978	      8.03161665	      0.70450298	     -5.86852782
      2.87500000	    -11.82099530	     -3.03613044	      8.43125539	     -1.76883362	     -0.04528829	      0.42599340	     36.74702866	     -0.44983073	     -7.62622082	    -10.35973417	     -5.96369762	      8.72342772	     18.67768317	     -4.75412555	      1.36969950	     15.18024324	    -17.22707270	      8.49640601	      3.92034273	      6.29527589	      8.36152489	      1.10430385	     -6.08993803
      2.88000000	    -11.95329852	     -3.33439773	      8.37294595	     -1.76062020	     -0.04614741	      0.42648259	     36.97238731	     -0.01692812	     -7.19605030	    -11.18219714	     -7.05552845	      7.46493700	     18.35774260	     -4.48285703	      0.98941079	     14.74084376	    -18.30363316	      8.18908371	      4.93246701	      6.95312275	      8.65680078	      1.45133219	     -6.20317923
      2.88500000	    -12.04361981	     -3.63258212	      8.21791743	     -1.75231854	     -0.04686143	      0.42714219	     37.15372661	      0.48861428	     -6.64416455	    -11.99094573	     -8.26736797	      6.17186028	     17.98647925	     -4.25003580	      0.57798402	     14.11676686	    -19.36205150	      7.70188310	      6.01046026	      7.87021737	      8.91261537	      1.81648806	     -6.19195064
      2.89000000	    -12.17126356	     -3.99283207	      8.12350780	     -1.74398201	     -0.04744755	      0.42773542	     37.35693126	      1.00942012	     -6.17697723	    -12.75122777	     -9.54178513	      4.83962296	     17.46419055	     -3.91284182	      0.09052919	     13.57616621	    -20.49552969	      7.10568417	      7.17653107	      8.83777620	      9.22109658	      2.22771329	     -6.27065746
      2.89500000	    -12.26626601	     -4.35062597	      7.92229839	     -1.73566443	     -0.04792358	      0.42851054	     37.54051365	      1.61381128	     -5.57840215	    -13.51316728	    -10.78172622	      3.44036908	     16.77751615	     -3.57668933	     -0.42194397	     12.86049067	    -21.65855940	      6.35717682	      8.42687352	     10.10677999	      9.46655242	      2.66433371	     -6.20475762
      2.90000000	    -12.37806413	     -4.74432944	      7.72738240	     -1.72731840	     -0.04826913	      0.42930267	     37.72453033	      2.25609370	     -4.96278158	    -14.23767546	    -11.92806653	      2.02802962	     15.92806654	     -3.16395906	     -0.99353908	     12.12151090	    -22.88061280	      5.46015851	      9.77287419	     11.49693447	      9.72559055	      3.13355162	     -6.12409280
      2.90500000	    -12.42903510	     -5.11356057	      7.52293944	     -1.71903332	     -0.04839940	      0.43020927	     37.84371907	      2.91516971	     -4.33118885	    -14.97926581	    -12.89598028	      0.60143784	     14.72940772	     -2.78664871	     -1.57815907	     11.39686573	    -24.07697538	      4.26317625	     11.12988176	     13.40525041	      9.88236478	      3.57511918	     -5.92112480
      2.91000000	    -12.58208900	     -5.55148678	      7.30735407	     -1.71062495	     -0.04857240	      0.43108908	     38.04540099	      3.63688053	     -3.67277527	    -15.67782120	    -13.71279021	     -0.80693841	     13.67327545	     -2.20805828	     -2.24349442	     10.55879481	    -25.43332064	      3.11215438	     12.68527789	     14.88124616	     10.16578337	      4.08217987	     -5.77811051
      2.91500000	    -12.58629155	     -5.89777320	      7.09354948	     -1.70231357	     -0.04846673	      0.43209821	     38.09487519	      4.32133105	     -3.03509694	    -16.47226769	    -14.06221887	     -1.96403289	     12.02206232	     -1.78386861	     -2.87114798	      9.75816678	    -26.67199100	      1.50767939	     14.20051559	     17.34590844	     10.23942628	      4.49911102	     -5.52163352
      2.92000000	    -12.65520085	     -6.24315989	      6.86979696	     -1.69403473	     -0.04840319	      0.43311116	     38.18457324	      5.02501360	     -2.29678268	    -17.22581820	    -14.37137696	     -3.27593541	     10.60051215	     -1.20254135	     -3.49019059	      8.96698759	    -28.06985022	     -0.07116909	     15.73844782	     19.20287823	     10.36898559	      4.91132586	     -5.26473548
      2.92500000	    -12.78827807	     -6.63342666	      6.62468774	     -1.68558341	     -0.04838929	      0.43408487	     38.32122817	      5.77515944	     -1.69189508	    -17.96189495	    -14.57416869	     -4.58744987	      9.44944420	     -0.50011891	     -4.16507017	      8.15179551	    -29.54278893	     -1.68951304	     17.26789930	     20.70160988	     10.59714468	      5.37478412	     -4.97055457
      2.93000000	    -12.73984016	     -6.89958004	      6.42835392	     -1.67739908	     -0.04811048	      0.43506247	     38.26500821	      6.42526402	     -1.07379689	    -18.80391938	    -14.24676212	     -5.50149393	      7.58178466	      0.03003134	     -4.73044008	      7.50177184	    -30.89223509	     -3.74917536	     18.50036646	     23.16963555	     10.56610306	      5.71693832	     -4.67338804
      2.93500000	    -12.79081120	     -7.27539088	      6.19573562	     -1.66904252	     -0.04796994	      0.43591106	     38.27078362	      7.16962243	     -0.53523644	    -19.56401948	    -13.91157739	     -6.37779307	      6.06265762	      0.74574171	     -5.39619854	      6.78856435	    -32.38618292	     -5.70151639	     19.49884544	     24.90347331	     10.69086448	      6.19075583	     -4.40324504
      2.94000000	    -12.80063918	     -7.58534415	      6.00149873	     -1.66086982	     -0.04778020	      0.43675987	     38.21712604	      7.84010253	     -0.04135031	    -20.32118033	    -13.44722745	     -7.18589752	      4.58352621	      1.47348579	     -5.98693897	      6.21590958	    -33.90516491	     -7.67037176	     20.31089524	     26.51127231	     10.74203065	      6.58452257	     -4.16132674
      2.94500000	    -12.80137385	     -7.89750210	      5.81619916	     -1.65277357	     -0.04759301	      0.43755994	     38.12795521	      8.49749060	      0.37631844	    -21.04151984	    -12.89196473	     -7.87592026	      3.19909955	      2.24368270	     -6.56666533	      5.71854519	    -35.46411036	     -9.56042361	     20.81483970	     27.87132710	     10.78218294	      6.98192837	     -3.94356169
      2.95000000	    -12.81562291	     -8.24056997	      5.61254796	     -1.64472074	     -0.04745758	      0.43834941	     38.02033820	      9.17870250	      0.74244788	    -21.69712788	    -12.31166973	     -8.46500859	      2.02792856	      3.07588844	     -7.16989076	      5.25249508	    -37.07908851	    -11.25551981	     21.01347570	     28.90531266	     10.84240057	      7.41447120	     -3.73280892
      2.95500000	    -12.84544651	     -8.59832261	      5.40121787	     -1.63675714	     -0.04735953	      0.43913269	     37.89576549	      9.86372799	      1.04915026	    -22.27286000	    -11.80191743	     -9.06619417	      1.10298482	      3.97265027	     -7.77011700	      4.83203925	    -38.75152742	    -12.73502748	     20.77488602	     29.57276755	     10.91702885	      7.85996845	     -3.52177773
      2.96000000	    -12.82187377	     -8.94759589	      5.25229079	     -1.62893532	     -0.04719848	      0.43979239	     37.67273612	     10.48852239	      1.23593985	    -22.74078605	    -11.36950494	     -9.67580419	      0.61284437	      4.86758645	     -8.32867817	      4.51612453	    -40.47696971	    -13.98273344	     19.97719935	     29.74030652	     10.92381756	      8.28781141	     -3.40304502
      2.96500000	    -12.86797414	     -9.34589260	      5.04092013	     -1.62111886	     -0.04714353	      0.44055454	     37.50754284	     11.17264945	      1.41052782	    -23.21672922	    -10.63859194	     -9.87433377	     -0.36889854	      5.84409254	     -8.94258675	      4.20447108	    -42.16222605	    -15.05693062	     18.83515406	     30.29160884	     11.01131054	      8.76777416	     -3.20892598
      2.97000000	    -12.80818563	     -9.76026809	      4.90437058	     -1.61334492	     -0.04694432	      0.44119472	     37.15171177	     11.82610052	      1.51582066	    -23.49989109	    -10.13544056	    -10.22290762	     -0.64029607	      6.75209539	     -9.55170914	      3.99087345	    -43.89933553	    -15.83078732	     17.28482760	     30.07828984	     10.99587555	      9.25415085	     -3.13110157
      2.97500000	    -12.76499996	    -10.17808675	      4.76339822	     -1.60565042	     -0.04676363	      0.44187147	     36.78724195	     12.46775001	      1.53211171	    -23.71603787	     -9.65855704	    -10.53569725	     -0.81198126	      7.70213620	    -10.15501513	      3.81102520	    -45.62522718	    -16.41780177	     15.39519007	     29.75755888	     10.98852055	      9.73491836	     -2.99329618
      2.98000000	    -12.74209880	    -10.56475467	      4.61788928	     -1.59797625	     -0.04654671	      0.44258953	     36.39282620	     13.06992442	      1.55537958	    -23.85430295	     -9.12440472	    -10.72068744	     -0.94219746	      8.68769471	    -10.71805815	      3.64715164	    -47.31336474	    -16.93391462	     13.21572685	     29.25277356	     11.00081677	     10.17095342	     -2.85720999
      2.98500000	    -12.71697644	    -10.91518620	      4.48315612	     -1.59034060	     -0.04624930	      0.44330669	     35.94852825	     13.61817408	      1.55531827	    -23.91529362	     -8.55907153	    -10.79802625	     -0.99989733	      9.68584076	    -11.23446550	      3.51173136	    -48.95526818	    -17.38772340	     10.86623109	     28.53233948	     11.00580947	     10.56024991	     -2.71809783
      2.99000000	    -12.67899919	    -11.22868252	      4.36941527	     -1.58274165	     -0.04584175	      0.44401523	     35.44309488	     14.10856350	      1.52635595	    -23.89381983	     -7.99947677	    -10.80486606	     -0.96151253	     10.68722648	    -11.70820208	      3.40617524	    -50.53993747	    -17.79725207	      8.47620151	     27.62347561	     10.99402418	     10.90128442	     -2.57421860
      2.99500000	    -12.65856639	    -11.46642202	      4.24242035	     -1.57519022	     -0.04534681	      0.44473523	     34.91008525	     14.51735676	      1.55209578	    -23.82050017	     -7.37052880	    -10.62107912	     -0.76844382	     11.71383613	    -12.10139169	      3.28313688	    -52.07381765	    -18.13548026	      6.18680782	     26.40280598	     10.98730829	     11.16133501	     -2.43314296
      3.00000000	    -12.61893052	    -11.66850369	      4.14507616	     -1.56768623	     -0.04474115	      0.44541127	     34.32856532	     14.86165077	      1.47410813	    -23.68228485	     -6.80549489	    -10.45548051	     -0.44769212	     12.73422824	    -12.45516022	      3.18808410	    -53.53915959	    -18.34873612	      4.09096040	     25.04400427	     10.95871851	     11.37682003	     -2.23180274
